{
    "asset" : {
        "generator" : "Khronos glTF Blender I/O v1.6.16",
        "version" : "2.0"
    },
    "scene" : 0,
    "scenes" : [
        {
            "name" : "Scene",
            "nodes" : [
                0
            ]
        }
    ],
    "nodes" : [
        {
            "mesh" : 0,
            "name" : "Sphere"
        }
    ],
    "meshes" : [
        {
            "name" : "Sphere",
            "primitives" : [
                {
                    "attributes" : {
                        "POSITION" : 0,
                        "NORMAL" : 1,
                        "TANGENT" : 2,
                        "TEXCOORD_0" : 3
                    },
                    "indices" : 4
                }
            ]
        }
    ],
    "accessors" : [
        {
            "bufferView" : 0,
            "componentType" : 5126,
            "count" : 668,
            "max" : [
                0.49999988079071045,
                0.5,
                0.4999997615814209
            ],
            "min" : [
                -0.4999998211860657,
                -0.5,
                -0.49999985098838806
            ],
            "type" : "VEC3"
        },
        {
            "bufferView" : 1,
            "componentType" : 5126,
            "count" : 668,
            "type" : "VEC3"
        },
        {
            "bufferView" : 2,
            "componentType" : 5126,
            "count" : 668,
            "type" : "VEC4"
        },
        {
            "bufferView" : 3,
            "componentType" : 5126,
            "count" : 668,
            "type" : "VEC2"
        },
        {
            "bufferView" : 4,
            "componentType" : 5123,
            "count" : 672,
            "type" : "SCALAR"
        }
    ],
    "bufferViews" : [
        {
            "buffer" : 0,
            "byteLength" : 8016,
            "byteOffset" : 0
        },
        {
            "buffer" : 0,
            "byteLength" : 8016,
            "byteOffset" : 8016
        },
        {
            "buffer" : 0,
            "byteLength" : 10688,
            "byteOffset" : 16032
        },
        {
            "buffer" : 0,
            "byteLength" : 5344,
            "byteOffset" : 26720
        },
        {
            "buffer" : 0,
            "byteLength" : 1344,
            "byteOffset" : 32064
        }
    ],
    "buffers" : [
        {
            "byteLength" : 33408,
            "uri" : "data:application/octet-stream;base64,"
        }
    ]
}
